<svg xmlns:xlink="http://www.w3.org/1999/xlink" width="128" height="128" viewBox="0 0 128 128" fill="none" xmlns="http://www.w3.org/2000/svg">
        <path d="M0 37.4911C9.26197 35.3577 17.8554 30.8883 24.4807 24.4808C30.8882 17.8554 35.3578 9.26197 37.4911 0C45.5512 5.04038 54.7831 7.95493 64 8.11268C73.2169 7.95493 82.4488 5.04038 90.5089 0C92.6422 9.26197 97.1117 17.8554 103.519 24.4808C110.145 30.8883 118.738 35.3577 128 37.4911C122.96 45.5512 120.045 54.7831 119.887 64C120.045 73.2169 122.96 82.4488 128 90.5089C118.738 92.6423 110.145 97.1117 103.519 103.519C97.1117 110.145 92.6422 118.738 90.5089 128C82.4488 122.96 73.2169 120.045 64 119.887C54.7831 120.045 45.5512 122.96 37.4911 128C35.3578 118.738 30.8882 110.145 24.4807 103.519C17.8554 97.1117 9.26197 92.6423 0 90.5089C5.04037 82.4488 7.95497 73.2169 8.11271 64C7.95497 54.7831 5.04037 45.5512 0 37.4911Z" fill="#FFF083"></path>
    </svg>